# xmcd
#
# Track frame offsets:
#	150
#	12654
#	26094
#	38376
#	51246
#	64837
#	77871
#	91018
#	104722
#	118143
#	130564
#	141613
#	154801
#	168289
#	179196
#	190790
#
# Disc length: 2704 seconds
# Revision: 0
# Processed by: cddbd v1.5.2PL0 Copyright (c) Steve Scherf et al.
# Submitted via: dBpowerAMP V12.0
#
DISCID=e10a8e10
DTITLE=B.B. King - Singin' the Blues
DYEAR=1956
DGENRE=Blues
TTITLE0=Please Love Me
TTITLE1=You Upset Me Baby
TTITLE2=Every Day I Have the Blues
TTITLE3=Bad Luck
TTITLE4=3 O'Clock Blues
TTITLE5=Blind Love
TTITLE6=Woke Up This Morning
TTITLE7=You Know I Love You
TTITLE8=Sweet Little Angel
TTITLE9=Ten Long Years
TTITLE10=Did You Ever Love a Woman
TTITLE11=Crying Won't Help You
TTITLE12=Boogie Rock (House Rocker) (Bonus Track)
TTITLE13=Let's Do the Boogie (Bonus Track)
TTITLE14=Dark Is the Night (Part 1) (Bonus Track)
TTITLE15=Dark Is the Night (Part 2) (Bonus Track)
EXTD=
EXTT0=
EXTT1=
EXTT2=
EXTT3=
EXTT4=
EXTT5=
EXTT6=
EXTT7=
EXTT8=
EXTT9=
EXTT10=
EXTT11=
EXTT12=
EXTT13=
EXTT14=
EXTT15=
PLAYORDER=
